<?xml version="1.0" encoding="UTF-8" standalone="no"?>
<svg width="244" height="70" viewBox="0 0 244 70" fill="none" xmlns="http://www.w3.org/2000/svg">
<rect width="38" height="70" fill="#A93232"/>
<path d="M7.6 55L17 43.44V45.72L8.12 34.8H14.04L19.84 42.28H18.04L23.84 34.8H29.72L20.92 45.72V43.44L30.28 55H24.32L18.04 46.96H19.84L13.52 55H7.6Z" fill="white"/>
<rect x="204" width="40" height="70" fill="#A93232"/>
<path d="M213.72 55V39.84C213.72 39.0133 213.693 38.1733 213.64 37.32C213.587 36.4667 213.507 35.6267 213.4 34.8H218.24L218.64 38.8H218.16C218.8 37.3867 219.747 36.3067 221 35.56C222.253 34.7867 223.707 34.4 225.36 34.4C227.733 34.4 229.52 35.0667 230.72 36.4C231.92 37.7333 232.52 39.8133 232.52 42.64V55H227.52V42.88C227.52 41.2533 227.2 40.0933 226.56 39.4C225.947 38.68 225.013 38.32 223.76 38.32C222.213 38.32 220.987 38.8 220.08 39.76C219.173 40.72 218.72 42 218.72 43.6V55H213.72Z" fill="white"/>
<rect x="42" width="26" height="70" fill="#A93232"/>
<path d="M51.72 55V34.8H56.72V55H51.72ZM51.44 31V26.12H57V31H51.44Z" fill="white"/>
<rect x="72" width="40" height="70" fill="#A93232"/>
<path d="M93.28 55.4C91.5733 55.4 90.08 54.9867 88.8 54.16C87.52 53.3067 86.6667 52.16 86.24 50.72H86.68V55H81.72V25.56H86.72V38.92H86.24C86.6933 37.5333 87.56 36.44 88.84 35.64C90.12 34.8133 91.6 34.4 93.28 34.4C95.0667 34.4 96.6267 34.8267 97.96 35.68C99.2933 36.5333 100.333 37.7467 101.08 39.32C101.827 40.8667 102.2 42.7333 102.2 44.92C102.2 47.1067 101.827 48.9867 101.08 50.56C100.333 52.1067 99.28 53.3067 97.92 54.16C96.5867 54.9867 95.04 55.4 93.28 55.4ZM91.88 51.56C93.4533 51.56 94.72 51.0133 95.68 49.92C96.6667 48.8267 97.16 47.16 97.16 44.92C97.16 42.68 96.6667 41.0133 95.68 39.92C94.72 38.8 93.4533 38.24 91.88 38.24C90.3067 38.24 89.04 38.7867 88.08 39.88C87.12 40.9733 86.64 42.64 86.64 44.88C86.64 47.12 87.12 48.8 88.08 49.92C89.04 51.0133 90.3067 51.56 91.88 51.56Z" fill="white"/>
<rect x="116" width="40" height="70" fill="#A93232"/>
<path d="M137.28 55.4C135.573 55.4 134.08 54.9867 132.8 54.16C131.52 53.3067 130.667 52.16 130.24 50.72H130.68V55H125.72V25.56H130.72V38.92H130.24C130.693 37.5333 131.56 36.44 132.84 35.64C134.12 34.8133 135.6 34.4 137.28 34.4C139.067 34.4 140.627 34.8267 141.96 35.68C143.293 36.5333 144.333 37.7467 145.08 39.32C145.827 40.8667 146.2 42.7333 146.2 44.92C146.2 47.1067 145.827 48.9867 145.08 50.56C144.333 52.1067 143.28 53.3067 141.92 54.16C140.587 54.9867 139.04 55.4 137.28 55.4ZM135.88 51.56C137.453 51.56 138.72 51.0133 139.68 49.92C140.667 48.8267 141.16 47.16 141.16 44.92C141.16 42.68 140.667 41.0133 139.68 39.92C138.72 38.8 137.453 38.24 135.88 38.24C134.307 38.24 133.04 38.7867 132.08 39.88C131.12 40.9733 130.64 42.64 130.64 44.88C130.64 47.12 131.12 48.8 132.08 49.92C133.04 51.0133 134.307 51.56 135.88 51.56Z" fill="white"/>
<rect x="160" width="40" height="70" fill="#A93232"/>
<path d="M178.84 55.4C176.76 55.4 174.96 54.9733 173.44 54.12C171.92 53.2667 170.733 52.0533 169.88 50.48C169.053 48.9067 168.64 47.04 168.64 44.88C168.64 42.72 169.053 40.8667 169.88 39.32C170.733 37.7467 171.92 36.5333 173.44 35.68C174.96 34.8267 176.76 34.4 178.84 34.4C180.92 34.4 182.72 34.8267 184.24 35.68C185.787 36.5333 186.973 37.7467 187.8 39.32C188.653 40.8667 189.08 42.72 189.08 44.88C189.08 47.04 188.653 48.9067 187.8 50.48C186.973 52.0533 185.787 53.2667 184.24 54.12C182.72 54.9733 180.92 55.4 178.84 55.4ZM178.84 51.56C180.413 51.56 181.667 51.0133 182.6 49.92C183.533 48.8 184 47.12 184 44.88C184 42.64 183.533 40.9733 182.6 39.88C181.667 38.7867 180.413 38.24 178.84 38.24C177.267 38.24 176.013 38.7867 175.08 39.88C174.147 40.9733 173.68 42.64 173.68 44.88C173.68 47.12 174.147 48.8 175.08 49.92C176.013 51.0133 177.267 51.56 178.84 51.56Z" fill="white"/>
</svg>
