<?xml version="1.0" encoding="UTF-8" standalone="no"?>
<svg width="14" height="13" viewBox="0 0 14 13" fill="none" xmlns="http://www.w3.org/2000/svg">
<path d="M12.6484 3.85156C13.0938 3.40625 13.0938 2.67969 12.6484 2.25781L11.2422 0.851562C10.8203 0.40625 10.0938 0.40625 9.64844 0.851562L8.57031 1.92969C8.47656 2.02344 8.47656 2.21094 8.57031 2.32812L11.1719 4.92969C11.2891 5.02344 11.4766 5.02344 11.5703 4.92969L12.6484 3.85156ZM7.65625 2.84375L1.49219 9.00781L1 11.8438C0.929688 12.2422 1.25781 12.5703 1.65625 12.5L4.49219 12.0078L10.6562 5.84375C10.7734 5.75 10.7734 5.5625 10.6562 5.44531L8.05469 2.84375C7.9375 2.75 7.75 2.75 7.65625 2.84375ZM3.90625 8.46875C3.76562 8.35156 3.76562 8.14062 3.90625 8.02344L7.51562 4.41406C7.63281 4.27344 7.84375 4.27344 7.96094 4.41406C8.10156 4.53125 8.10156 4.74219 7.96094 4.85938L4.35156 8.46875C4.23438 8.60938 4.02344 8.60938 3.90625 8.46875ZM3.0625 10.4375H4.1875V11.3047L2.66406 11.5625L1.9375 10.8359L2.19531 9.3125H3.0625V10.4375Z" fill="#5e5e5e"/>
</svg>
